<?xml version="1.0" encoding="UTF-8" standalone="no"?>
<!DOCTYPE svg PUBLIC "-//W3C//DTD SVG 1.1//EN" "http://www.w3.org/Graphics/SVG/1.1/DTD/svg11.dtd">
<svg width="100%" height="100%" viewBox="0 0 238 107" version="1.1" xmlns="http://www.w3.org/2000/svg" xmlns:xlink="http://www.w3.org/1999/xlink" xml:space="preserve" xmlns:serif="http://www.serif.com/" style="fill-rule:evenodd;clip-rule:evenodd;stroke-linejoin:round;stroke-miterlimit:2;">
    <g transform="matrix(0.961594,0,0,1,-62.5007,-37.0281)">
        <g transform="matrix(1,0,0,1,-0.763695,-98)">
            <g opacity="0.97">
                <g transform="matrix(1.03994,0,0,1,-2.44213,0)">
                    <g transform="matrix(81.795,0,0,81.795,61.1444,195.615)">
                        <path d="M0.09,-0L0.09,-0.723L0.241,-0.723L0.241,-0.429L0.54,-0.429L0.54,-0.723L0.69,-0.723L0.69,-0L0.54,-0L0.54,-0.33L0.241,-0.33L0.241,-0L0.09,-0Z" style="fill:rgb(218,127,255);fill-rule:nonzero;"/>
                    </g>
                    <g transform="matrix(81.795,0,0,81.795,123.575,195.615)">
                        <path d="M0.407,0.018C0.298,0.018 0.21,-0.016 0.144,-0.085C0.078,-0.154 0.045,-0.246 0.045,-0.361C0.045,-0.478 0.078,-0.57 0.145,-0.638C0.211,-0.707 0.3,-0.741 0.412,-0.741C0.524,-0.741 0.613,-0.707 0.679,-0.638C0.745,-0.57 0.778,-0.478 0.778,-0.363C0.778,-0.245 0.745,-0.152 0.679,-0.084C0.613,-0.016 0.522,0.018 0.407,0.018ZM0.409,-0.082C0.474,-0.082 0.525,-0.107 0.562,-0.157C0.6,-0.208 0.619,-0.277 0.619,-0.363C0.619,-0.447 0.6,-0.515 0.562,-0.565C0.524,-0.616 0.474,-0.642 0.412,-0.642C0.349,-0.642 0.299,-0.616 0.261,-0.565C0.224,-0.515 0.205,-0.447 0.205,-0.362C0.205,-0.278 0.224,-0.21 0.261,-0.158C0.299,-0.107 0.348,-0.082 0.409,-0.082Z" style="fill:rgb(218,127,255);fill-rule:nonzero;"/>
                    </g>
                    <g transform="matrix(81.795,0,0,81.795,189.52,195.615)">
                        <path d="M0.011,-0L0.292,-0.723L0.443,-0.723L0.724,-0L0.57,-0L0.495,-0.193L0.196,-0.193L0.121,-0L0.011,-0ZM0.233,-0.289L0.458,-0.289L0.345,-0.577L0.233,-0.289Z" style="fill:rgb(218,127,255);fill-rule:nonzero;"/>
                    </g>
                    <g transform="matrix(81.795,0,0,81.795,248.356,195.615)">
                        <path d="M0.667,-0.017C0.577,0.006 0.499,0.018 0.433,0.018C0.308,0.018 0.213,-0.015 0.146,-0.08C0.079,-0.146 0.045,-0.24 0.045,-0.362C0.045,-0.484 0.079,-0.577 0.146,-0.643C0.213,-0.708 0.308,-0.741 0.432,-0.741C0.511,-0.741 0.589,-0.731 0.667,-0.713L0.667,-0.595C0.577,-0.626 0.503,-0.642 0.445,-0.642C0.368,-0.642 0.309,-0.617 0.268,-0.568C0.226,-0.52 0.205,-0.45 0.205,-0.361C0.205,-0.274 0.227,-0.206 0.272,-0.157C0.317,-0.108 0.378,-0.083 0.457,-0.083C0.474,-0.083 0.494,-0.085 0.517,-0.09L0.517,-0.328L0.667,-0.328L0.667,-0.017Z" style="fill:rgb(218,127,255);fill-rule:nonzero;"/>
                    </g>
                </g>
                <g transform="matrix(1.03994,0,0,1,-2.31961,0)">
                    <g transform="matrix(81.795,0,0,81.795,58.0769,195.615)">
                        <path d="M0.09,-0L0.09,-0.723L0.241,-0.723L0.241,-0.429L0.54,-0.429L0.54,-0.723L0.69,-0.723L0.69,-0L0.54,-0L0.54,-0.33L0.241,-0.33L0.241,-0L0.09,-0Z" style="fill:rgb(20,0,167);fill-rule:nonzero;"/>
                    </g>
                    <g transform="matrix(81.795,0,0,81.795,120.507,195.615)">
                        <path d="M0.407,0.018C0.298,0.018 0.21,-0.016 0.144,-0.085C0.078,-0.154 0.045,-0.246 0.045,-0.361C0.045,-0.478 0.078,-0.57 0.145,-0.638C0.211,-0.707 0.3,-0.741 0.412,-0.741C0.524,-0.741 0.613,-0.707 0.679,-0.638C0.745,-0.57 0.778,-0.478 0.778,-0.363C0.778,-0.245 0.745,-0.152 0.679,-0.084C0.613,-0.016 0.522,0.018 0.407,0.018ZM0.409,-0.082C0.474,-0.082 0.525,-0.107 0.562,-0.157C0.6,-0.208 0.619,-0.277 0.619,-0.363C0.619,-0.447 0.6,-0.515 0.562,-0.565C0.524,-0.616 0.474,-0.642 0.412,-0.642C0.349,-0.642 0.299,-0.616 0.261,-0.565C0.224,-0.515 0.205,-0.447 0.205,-0.362C0.205,-0.278 0.224,-0.21 0.261,-0.158C0.299,-0.107 0.348,-0.082 0.409,-0.082Z" style="fill:rgb(20,0,167);fill-rule:nonzero;"/>
                    </g>
                    <g transform="matrix(81.795,0,0,81.795,186.452,195.615)">
                        <path d="M0.011,-0L0.292,-0.723L0.443,-0.723L0.724,-0L0.57,-0L0.495,-0.193L0.196,-0.193L0.121,-0L0.011,-0ZM0.233,-0.289L0.458,-0.289L0.345,-0.577L0.233,-0.289Z" style="fill:rgb(20,0,167);fill-rule:nonzero;"/>
                    </g>
                    <g transform="matrix(81.795,0,0,81.795,245.288,195.615)">
                        <path d="M0.667,-0.017C0.577,0.006 0.499,0.018 0.433,0.018C0.308,0.018 0.213,-0.015 0.146,-0.08C0.079,-0.146 0.045,-0.24 0.045,-0.362C0.045,-0.484 0.079,-0.577 0.146,-0.643C0.213,-0.708 0.308,-0.741 0.432,-0.741C0.511,-0.741 0.589,-0.731 0.667,-0.713L0.667,-0.595C0.577,-0.626 0.503,-0.642 0.445,-0.642C0.368,-0.642 0.309,-0.617 0.268,-0.568C0.226,-0.52 0.205,-0.45 0.205,-0.361C0.205,-0.274 0.227,-0.206 0.272,-0.157C0.317,-0.108 0.378,-0.083 0.457,-0.083C0.474,-0.083 0.494,-0.085 0.517,-0.09L0.517,-0.328L0.667,-0.328L0.667,-0.017Z" style="fill:rgb(20,0,167);fill-rule:nonzero;"/>
                    </g>
                </g>
            </g>
        </g>
        <g transform="matrix(1.03994,0,0,1,50.7279,-51)">
            <g transform="matrix(40,0,0,40,112,186.84)">
                <path d="M0.27,-0L0.27,-0.624L0.011,-0.624L0.011,-0.723L0.679,-0.723L0.679,-0.624L0.42,-0.624L0.42,-0L0.27,-0Z" style="fill:rgb(255,195,14);fill-rule:nonzero;"/>
            </g>
            <g transform="matrix(40,0,0,40,138.917,186.84)">
                <path d="M0.353,-0.058C0.305,-0.011 0.253,0.012 0.198,0.012C0.151,0.012 0.113,-0.002 0.084,-0.031C0.055,-0.059 0.04,-0.097 0.04,-0.142C0.04,-0.201 0.064,-0.247 0.111,-0.279C0.158,-0.311 0.226,-0.327 0.314,-0.327L0.353,-0.327L0.353,-0.376C0.353,-0.432 0.321,-0.459 0.258,-0.459C0.201,-0.459 0.145,-0.444 0.087,-0.412L0.087,-0.511C0.152,-0.536 0.217,-0.548 0.281,-0.548C0.422,-0.548 0.492,-0.493 0.492,-0.381L0.492,-0.144C0.492,-0.102 0.505,-0.081 0.532,-0.081C0.537,-0.081 0.543,-0.081 0.551,-0.083L0.555,-0.001C0.524,0.008 0.497,0.012 0.474,0.012C0.414,0.012 0.376,-0.011 0.359,-0.058L0.353,-0.058ZM0.353,-0.135L0.353,-0.244L0.319,-0.244C0.225,-0.244 0.179,-0.215 0.179,-0.156C0.179,-0.136 0.185,-0.12 0.199,-0.106C0.212,-0.093 0.229,-0.086 0.249,-0.086C0.283,-0.086 0.318,-0.102 0.353,-0.135Z" style="fill:rgb(255,195,14);fill-rule:nonzero;"/>
            </g>
            <g transform="matrix(40,0,0,40,161.752,186.84)">
                <path d="M0.09,-0L0.09,-0.536L0.235,-0.536L0.235,-0.435C0.272,-0.511 0.329,-0.548 0.406,-0.548C0.415,-0.548 0.424,-0.547 0.433,-0.545L0.433,-0.417C0.412,-0.424 0.393,-0.428 0.375,-0.428C0.318,-0.428 0.271,-0.399 0.235,-0.34L0.235,-0L0.09,-0Z" style="fill:rgb(255,195,14);fill-rule:nonzero;"/>
            </g>
            <g transform="matrix(40,0,0,40,179.255,186.84)">
                <path d="M0.094,0.167L0.106,0.062C0.166,0.089 0.222,0.103 0.276,0.103C0.33,0.103 0.368,0.091 0.392,0.068C0.416,0.046 0.428,0.009 0.428,-0.042L0.428,-0.116C0.393,-0.039 0.334,-0 0.253,-0C0.19,-0 0.139,-0.024 0.102,-0.072C0.064,-0.119 0.045,-0.184 0.045,-0.265C0.045,-0.351 0.066,-0.419 0.108,-0.471C0.15,-0.523 0.206,-0.548 0.276,-0.548C0.331,-0.548 0.381,-0.526 0.428,-0.482L0.443,-0.536L0.573,-0.536L0.573,-0.127C0.573,-0.045 0.568,0.014 0.558,0.05C0.548,0.086 0.529,0.117 0.5,0.142C0.452,0.184 0.384,0.205 0.296,0.205C0.234,0.205 0.167,0.192 0.094,0.167ZM0.428,-0.2L0.428,-0.397C0.393,-0.437 0.356,-0.457 0.318,-0.457C0.282,-0.457 0.253,-0.44 0.231,-0.407C0.21,-0.374 0.199,-0.329 0.199,-0.273C0.199,-0.168 0.233,-0.116 0.3,-0.116C0.347,-0.116 0.389,-0.144 0.428,-0.2Z" style="fill:rgb(255,195,14);fill-rule:nonzero;"/>
            </g>
            <g transform="matrix(40,0,0,40,204.961,186.84)">
                <path d="M0.527,-0.018C0.458,0.002 0.393,0.012 0.332,0.012C0.242,0.012 0.171,-0.013 0.12,-0.064C0.068,-0.115 0.042,-0.184 0.042,-0.272C0.042,-0.355 0.066,-0.422 0.113,-0.472C0.16,-0.523 0.223,-0.548 0.301,-0.548C0.379,-0.548 0.437,-0.524 0.473,-0.474C0.509,-0.425 0.527,-0.346 0.527,-0.239L0.194,-0.239C0.204,-0.137 0.26,-0.086 0.363,-0.086C0.411,-0.086 0.466,-0.097 0.527,-0.12L0.527,-0.018ZM0.192,-0.321L0.385,-0.321C0.385,-0.412 0.355,-0.458 0.296,-0.458C0.236,-0.458 0.202,-0.412 0.192,-0.321Z" style="fill:rgb(255,195,14);fill-rule:nonzero;"/>
            </g>
            <g transform="matrix(40,0,0,40,227.717,186.84)">
                <path d="M0.367,-0.003C0.332,0.007 0.305,0.012 0.285,0.012C0.16,0.012 0.097,-0.046 0.097,-0.164L0.097,-0.446L0.037,-0.446L0.037,-0.536L0.097,-0.536L0.097,-0.626L0.242,-0.643L0.242,-0.536L0.356,-0.536L0.356,-0.446L0.242,-0.446L0.242,-0.183C0.242,-0.117 0.269,-0.084 0.322,-0.084C0.335,-0.084 0.349,-0.086 0.367,-0.091L0.367,-0.003Z" style="fill:rgb(255,195,14);fill-rule:nonzero;"/>
            </g>
        </g>
    </g>
</svg>
